<svg 
  viewBox="0 0 200 120" 
  preserveAspectRatio="xMidYMid meet"
  xmlns="http://www.w3.org/2000/svg"
>
  <path
    d="M 20 60 
       Q 15 40, 20 25 
       Q 25 15, 40 18 
       Q 60 22, 80 20 
       Q 100 18, 120 25 
       Q 140 32, 155 40 
       Q 170 48, 175 60 
       Q 180 72, 175 85 
       Q 170 98, 160 100 
       Q 150 102, 140 100 
       Q 130 98, 120 95 
       Q 110 92, 100 88 
       Q 90 84, 80 80 
       Q 70 76, 60 72 
       Q 50 68, 40 65 
       Q 30 62, 22 60 
       Q 20 60, 20 60 Z"
    fill="currentColor"
    fillOpacity="0"
    pointerEvents="all"
  />
  <path
    d="M 20 60 
       Q 15 40, 20 25 
       Q 25 15, 40 18 
       Q 60 22, 80 20 
       Q 100 18, 120 25 
       Q 140 32, 155 40 
       Q 170 48, 175 60 
       Q 180 72, 175 85 
       Q 170 98, 160 100 
       Q 150 102, 140 100 
       Q 130 98, 120 95 
       Q 110 92, 100 88 
       Q 90 84, 80 80 
       Q 70 76, 60 72 
       Q 50 68, 40 65 
       Q 30 62, 22 60 
       Q 20 60, 20 60 Z"
    fill="none"
    stroke="currentColor"
    strokeWidth="1.5"
    strokeLinecap="round"
    strokeLinejoin="round"
    pointerEvents="none"
  />
  <path d="M 50 30 Q 47 28, 50 26 Q 53 28, 50 30" fill="none" stroke="currentColor" strokeWidth="1" strokeLinecap="round" />
  <path d="M 90 25 Q 87 23, 90 21 Q 93 23, 90 25" fill="none" stroke="currentColor" strokeWidth="1" strokeLinecap="round" />
  <path d="M 130 35 Q 127 33, 130 31 Q 133 33, 130 35" fill="none" stroke="currentColor" strokeWidth="1" strokeLinecap="round" />
  <path d="M 70 75 Q 67 73, 70 71 Q 73 73, 70 75" fill="none" stroke="currentColor" strokeWidth="1" strokeLinecap="round" />
  <path d="M 110 80 Q 107 78, 110 76 Q 113 78, 110 80" fill="none" stroke="currentColor" strokeWidth="1" strokeLinecap="round" />
</svg>

